<?xml version="1.0" encoding="UTF-8"?>
<svg version="1.1" xmlns="http://www.w3.org/2000/svg" width="90" height="90">
<path d="M0 0 C9.57 0 19.14 0 29 0 C29 1.98 29 3.96 29 6 C22.73 6 16.46 6 10 6 C10 26.13 10 46.26 10 67 C6.7 67 3.4 67 0 67 C0 44.89 0 22.78 0 0 Z " fill="#E1B124" transform="translate(60,12)"/>
<path d="M0 0 C9.57 0 19.14 0 29 0 C29 22.11 29 44.22 29 67 C25.7 67 22.4 67 19 67 C19 46.87 19 26.74 19 6 C12.73 6 6.46 6 0 6 C0 4.02 0 2.04 0 0 Z " fill="#E1B124" transform="translate(2,12)"/>
<path d="M0 0 C3.63 0 7.26 0 11 0 C11 22.11 11 44.22 11 67 C7.37 67 3.74 67 0 67 C0 44.89 0 22.78 0 0 Z " fill="#E1B124" transform="translate(40,12)"/>
</svg>
